<?xml version="1.0" encoding="utf-8"?>
<!-- Generator: Adobe Illustrator 24.0.0, SVG Export Plug-In . SVG Version: 6.00 Build 0)  -->
<svg version="1.1" id="Layer_1" xmlns="http://www.w3.org/2000/svg" xmlns:xlink="http://www.w3.org/1999/xlink" x="0px" y="0px"
	 viewBox="0 0 105 105" style="enable-background:new 0 0 105 105;" xml:space="preserve">
<style type="text/css">
	.st0{fill:#F2F0EB;}
	.st1{fill:#F3CF04;}
</style>
<rect class="st0" width="104.7" height="104.7"/>
<path class="st1" d="M29.3,80c4.1,0,7.3-3.3,7.3-7.3c0-4.1-3.3-7.3-7.3-7.3c-4.1,0-7.3,3.3-7.3,7.3C22,76.8,25.2,80,29.3,80z"/>
<path class="st1" d="M58.7,65.4H46.9c-0.8,0-1.5,0.7-1.5,1.5v11.7c0,0.8,0.7,1.5,1.5,1.5h11.7c0.8,0,1.5-0.7,1.5-1.5V66.8
	C60.1,66,59.5,65.4,58.7,65.4z"/>
<path class="st1" d="M83.1,77.7l-5.4-10.8c-0.1-0.3-0.3-0.5-0.6-0.6c-0.3-0.2-0.5-0.2-0.8-0.2c-0.3,0-0.6,0.1-0.8,0.2
	c-0.3,0.2-0.5,0.4-0.6,0.6l-5.4,10.8c-0.1,0.2-0.2,0.5-0.2,0.8c0,0.3,0.1,0.5,0.2,0.8c0.1,0.2,0.3,0.4,0.6,0.6
	c0.2,0.1,0.5,0.2,0.8,0.2h10.8c0.3,0,0.5-0.1,0.8-0.2c0.2-0.1,0.4-0.3,0.6-0.6c0.1-0.2,0.2-0.5,0.2-0.8C83.3,78.2,83.3,78,83.1,77.7
	L83.1,77.7z"/>
<path class="st1" d="M29.3,62.4c0.8,0,1.5-0.3,2.1-0.9c0.6-0.6,0.9-1.3,0.9-2.1v-3.7c0-0.1,0-0.2,0.1-0.3c0-0.1,0.1-0.2,0.2-0.2
	c0.1-0.1,0.1-0.1,0.2-0.2c0.1,0,0.2-0.1,0.3-0.1h16.2c0.2,0,0.4,0.1,0.5,0.2c0.1,0.1,0.2,0.3,0.2,0.5v3.7c0,0.8,0.3,1.5,0.9,2.1
	c0.6,0.6,1.3,0.9,2.1,0.9c0.8,0,1.5-0.3,2.1-0.9c0.6-0.6,0.9-1.3,0.9-2.1v-3.7c0-0.1,0-0.2,0.1-0.3c0-0.1,0.1-0.2,0.2-0.2
	c0.1-0.1,0.1-0.1,0.2-0.2c0.1,0,0.2-0.1,0.3-0.1h16.2c0.2,0,0.4,0.1,0.5,0.2c0.1,0.1,0.2,0.3,0.2,0.5v3.7c0,0.8,0.3,1.5,0.9,2.1
	c0.6,0.6,1.3,0.9,2.1,0.9c0.8,0,1.5-0.3,2.1-0.9c0.6-0.6,0.9-1.3,0.9-2.1v-5.9c0-1.2-0.5-2.3-1.3-3.1c-0.8-0.8-1.9-1.3-3.1-1.3H30.8
	c-1.2,0-2.3,0.5-3.1,1.3c-0.8,0.8-1.3,1.9-1.3,3.1v5.9c0,0.8,0.3,1.5,0.9,2.1C27.8,62.1,28.5,62.4,29.3,62.4L29.3,62.4z"/>
<path class="st1" d="M51.7,25.7L43,34.4c-0.6,0.6-0.6,1.6,0,2.2l8.7,8.7c0.6,0.6,1.6,0.6,2.2,0l8.7-8.7c0.6-0.6,0.6-1.6,0-2.2
	l-8.7-8.7C53.3,25.1,52.3,25.1,51.7,25.7z"/>
</svg>
