<svg id="Layer_1" data-name="Layer 1" xmlns="http://www.w3.org/2000/svg" viewBox="0 0 104.69 104.69"><defs><style>.cls-1{fill:#f2f0eb;}.cls-2{fill:#f3cf04;}</style></defs><title>target</title><rect class="cls-1" width="104.69" height="104.69"/><path class="cls-2" d="M82.59,49.59H76.93A24.77,24.77,0,0,0,55.09,27.75V22.09a2.75,2.75,0,0,0-2.75-2.75,2.77,2.77,0,0,0-2.75,2.75v5.66A24.78,24.78,0,0,0,27.76,49.59H22.09a2.77,2.77,0,0,0-2.75,2.75,2.75,2.75,0,0,0,2.75,2.75h5.67A24.78,24.78,0,0,0,49.59,76.93v5.66a2.75,2.75,0,0,0,2.75,2.75,2.73,2.73,0,0,0,2.75-2.75V76.93A24.77,24.77,0,0,0,76.93,55.09h5.66a2.73,2.73,0,0,0,2.75-2.75,2.75,2.75,0,0,0-2.75-2.75Zm-11.35-.82a.61.61,0,0,1,0,.3.68.68,0,0,1-.13.27.88.88,0,0,1-.24.19.77.77,0,0,1-.3.06H64.92a.71.71,0,0,1-.42-.14.74.74,0,0,1-.24-.36,12.39,12.39,0,0,0-8.66-8.66.72.72,0,0,1-.37-.25.71.71,0,0,1-.14-.42V34.12a.82.82,0,0,1,.07-.3.6.6,0,0,1,.19-.23.59.59,0,0,1,.27-.14.61.61,0,0,1,.3,0A19.28,19.28,0,0,1,71.24,48.77ZM52.34,59.22A6.88,6.88,0,0,1,51,45.6a6.87,6.87,0,0,1,8.22,6.74,6.88,6.88,0,0,1-6.88,6.88ZM48.77,33.44a.61.61,0,0,1,.3,0,.59.59,0,0,1,.27.14.71.71,0,0,1,.19.23.8.8,0,0,1,.06.3v5.64a.71.71,0,0,1-.14.42.68.68,0,0,1-.36.24,12.39,12.39,0,0,0-8.66,8.66.68.68,0,0,1-.25.37.68.68,0,0,1-.41.14H34.12a.72.72,0,0,1-.29-.06.88.88,0,0,1-.24-.19.68.68,0,0,1-.13-.27.61.61,0,0,1,0-.3A19.28,19.28,0,0,1,48.77,33.44ZM33.45,55.9a.76.76,0,0,1,0-.3.87.87,0,0,1,.14-.27.88.88,0,0,1,.24-.19.72.72,0,0,1,.29-.06h5.65a.68.68,0,0,1,.41.14.7.7,0,0,1,.25.36,12.34,12.34,0,0,0,8.66,8.66.7.7,0,0,1,.36.25.68.68,0,0,1,.14.41v5.64a.73.73,0,0,1-.06.3.6.6,0,0,1-.19.23.66.66,0,0,1-.26.14.61.61,0,0,1-.3,0A19.28,19.28,0,0,1,33.45,55.9ZM55.92,71.23a.61.61,0,0,1-.3,0,.59.59,0,0,1-.27-.14.71.71,0,0,1-.19-.23.73.73,0,0,1-.07-.29V64.92a.68.68,0,0,1,.14-.42.72.72,0,0,1,.37-.25,12.39,12.39,0,0,0,8.66-8.66.7.7,0,0,1,.25-.36.68.68,0,0,1,.41-.14h5.64a.63.63,0,0,1,.3.07.69.69,0,0,1,.24.18.75.75,0,0,1,.13.27.65.65,0,0,1,0,.31A19.29,19.29,0,0,1,55.92,71.23Z" transform="translate(0)"/></svg>