<?xml version="1.0" encoding="utf-8"?>
<!-- Generator: Adobe Illustrator 24.0.0, SVG Export Plug-In . SVG Version: 6.00 Build 0)  -->
<svg version="1.1" id="Layer_1" xmlns="http://www.w3.org/2000/svg" xmlns:xlink="http://www.w3.org/1999/xlink" x="0px" y="0px"
	 viewBox="0 0 105 105" style="enable-background:new 0 0 105 105;" xml:space="preserve">
<style type="text/css">
	.st0{fill:#F2F0EB;}
	.st1{fill:#F3CF04;}
</style>
<rect class="st0" width="104.7" height="104.7"/>
<path class="st1" d="M38.6,61.2c0.1-0.2,0.1-0.4,0.1-0.6c0-0.2-0.2-0.4-0.3-0.5c-2.4-2-5.5-3-8.6-3c-3,0-5.8,0.9-8.2,2.7
	s-4.2,4.2-5.1,7c0,0.1-0.1,0.3,0,0.4c0,0.1,0.1,0.3,0.2,0.4c0.1,0.1,0.2,0.2,0.3,0.3c0.1,0.1,0.3,0.1,0.4,0.1h18.1
	c0.2,0,0.4-0.1,0.5-0.2c0.2-0.1,0.3-0.3,0.3-0.5l0.1-0.5C36.9,64.8,37.6,62.9,38.6,61.2L38.6,61.2z"/>
<path class="st1" d="M74.9,57c-2.6,0-5.2,0.8-7.4,2.2c-0.1,0.1-0.2,0.1-0.2,0.2c-0.1,0.1-0.1,0.2-0.1,0.3c0,0.1,0,0.2,0,0.3
	c0,0.1,0.1,0.2,0.1,0.3c1.3,1.9,2.2,4,2.7,6.3l0.1,0.5c0,0.2,0.2,0.4,0.3,0.5c0.2,0.1,0.3,0.2,0.5,0.2h16.5c0.1,0,0.3,0,0.4-0.1
	c0.1-0.1,0.2-0.1,0.3-0.3c0.1-0.1,0.1-0.2,0.2-0.4c0-0.1,0-0.3,0-0.4c-0.9-2.8-2.7-5.3-5.1-7C80.7,57.9,77.8,57,74.9,57z"/>
<path class="st1" d="M65.6,67.9c0.1,0,0.3,0,0.4-0.1c0.1-0.1,0.2-0.2,0.3-0.3c0.1-0.1,0.1-0.2,0.2-0.4c0-0.1,0-0.3,0-0.4
	c-0.9-2.8-2.7-5.3-5.1-7.1C59,57.9,56.1,57,53.1,57c-3,0-5.9,1-8.3,2.8c-2.4,1.8-4.1,4.3-5,7.1c0,0.1,0,0.2,0,0.4
	c0,0.1,0.1,0.2,0.1,0.3c0.1,0.1,0.2,0.2,0.3,0.2c0.1,0.1,0.2,0.1,0.3,0.1H65.6z"/>
<path class="st1" d="M29.8,53.9c4.7,0,8.5-3.8,8.5-8.5c0-4.7-3.8-8.5-8.5-8.5c-4.7,0-8.5,3.8-8.5,8.5C21.3,50.1,25.1,53.9,29.8,53.9
	z"/>
<path class="st1" d="M74.9,53.9c4.7,0,8.5-3.8,8.5-8.5c0-4.7-3.8-8.5-8.5-8.5c-4.7,0-8.5,3.8-8.5,8.5C66.3,50.1,70.2,53.9,74.9,53.9
	z"/>
<path class="st1" d="M58,52.4c1.7-1.2,2.9-2.9,3.4-4.8c0.5-2,0.3-4.1-0.6-5.9c-0.9-1.8-2.4-3.3-4.3-4.1c-1.9-0.8-4-0.9-5.9-0.3
	c-2,0.6-3.6,1.9-4.7,3.6c-1.1,1.7-1.5,3.8-1.2,5.8c0.3,2,1.3,3.9,2.9,5.2c1.5,1.3,3.5,2.1,5.6,2.1C54.9,53.9,56.6,53.4,58,52.4
	L58,52.4z"/>
</svg>
