<?xml version="1.0" encoding="utf-8"?>
<!-- Generator: Adobe Illustrator 24.0.0, SVG Export Plug-In . SVG Version: 6.00 Build 0)  -->
<svg version="1.1" id="Layer_1" xmlns="http://www.w3.org/2000/svg" xmlns:xlink="http://www.w3.org/1999/xlink" x="0px" y="0px"
	 viewBox="0 0 105 105" style="enable-background:new 0 0 105 105;" xml:space="preserve">
<style type="text/css">
	.st0{fill:#F2F0EB;}
	.st1{fill:#F3CF04;}
</style>
<rect class="st0" width="104.7" height="104.7"/>
<path class="st1" d="M57,76.1h-9.4c-0.2,0-0.4,0.1-0.6,0.2c-0.2,0.1-0.3,0.3-0.5,0.4c-0.1,0.2-0.2,0.4-0.2,0.6c0,0.2,0,0.4,0.1,0.6
	l0.8,1.7c0.4,0.8,1,1.5,1.8,2c0.8,0.5,1.7,0.7,2.6,0.7h1c0.9,0,1.8-0.3,2.6-0.7c0.8-0.5,1.4-1.2,1.8-2l0.8-1.7
	c0.1-0.2,0.1-0.4,0.1-0.6c0-0.2-0.1-0.4-0.2-0.6c-0.1-0.2-0.3-0.3-0.5-0.4C57.5,76.2,57.2,76.1,57,76.1L57,76.1z"/>
<path class="st1" d="M52.3,33.6c0.7,0,1.3-0.3,1.8-0.7c0.5-0.5,0.7-1.1,0.7-1.8v-6.2c0-0.7-0.3-1.3-0.7-1.8
	c-0.5-0.5-1.1-0.7-1.8-0.7c-0.7,0-1.3,0.3-1.8,0.7c-0.5,0.5-0.7,1.1-0.7,1.8v6.2c0,0.7,0.3,1.3,0.7,1.8C51,33.3,51.7,33.6,52.3,33.6
	z"/>
<path class="st1" d="M75.3,31.9c-0.5-0.5-1.1-0.7-1.8-0.7c-0.7,0-1.3,0.3-1.8,0.7l-4.4,4.4c-0.2,0.2-0.4,0.5-0.6,0.8
	c-0.1,0.3-0.2,0.6-0.2,1c0,0.3,0.1,0.7,0.2,1c0.1,0.3,0.3,0.6,0.5,0.8c0.2,0.2,0.5,0.4,0.8,0.5c0.3,0.1,0.6,0.2,1,0.2
	c0.3,0,0.7-0.1,1-0.2c0.3-0.1,0.6-0.3,0.8-0.6l4.4-4.4c0.5-0.5,0.7-1.1,0.7-1.8C76.1,33,75.8,32.3,75.3,31.9L75.3,31.9z"/>
<path class="st1" d="M79.8,52.3h-5c-0.7,0-1.3,0.3-1.8,0.7c-0.5,0.5-0.7,1.1-0.7,1.8c0,0.7,0.3,1.3,0.7,1.8c0.5,0.5,1.1,0.7,1.8,0.7
	h5c0.7,0,1.3-0.3,1.8-0.7c0.5-0.5,0.7-1.1,0.7-1.8c0-0.7-0.3-1.3-0.7-1.8C81.1,52.6,80.5,52.3,79.8,52.3z"/>
<path class="st1" d="M37.3,36.3l-4.4-4.4c-0.5-0.5-1.1-0.7-1.8-0.7c-0.7,0-1.3,0.3-1.7,0.7c-0.5,0.5-0.7,1.1-0.7,1.7
	c0,0.7,0.2,1.3,0.7,1.8l4.4,4.4c0.5,0.5,1.1,0.7,1.8,0.7s1.3-0.3,1.7-0.7c0.5-0.5,0.7-1.1,0.7-1.7C38,37.4,37.8,36.8,37.3,36.3z"/>
<path class="st1" d="M29.8,52.3h-5c-0.7,0-1.3,0.3-1.8,0.7c-0.5,0.5-0.7,1.1-0.7,1.8c0,0.7,0.3,1.3,0.7,1.8c0.5,0.5,1.1,0.7,1.8,0.7
	h5c0.7,0,1.3-0.3,1.8-0.7c0.5-0.5,0.7-1.1,0.7-1.8c0-0.7-0.3-1.3-0.7-1.8C31.1,52.6,30.5,52.3,29.8,52.3z"/>
<path class="st1" d="M52.3,37.3c-3.5,0-6.8,1.1-9.6,3.2c-2.8,2-4.8,4.9-5.9,8.2c-1,3.3-1,6.8,0.1,10.1c1.1,3.3,3.2,6.1,6.1,8.1
	c0.2,0.1,0.3,0.3,0.4,0.4c0.1,0.2,0.1,0.4,0.1,0.6v1.9c0,0.7,0.3,1.3,0.7,1.8c0.5,0.5,1.1,0.7,1.8,0.7h12.5c0.7,0,1.3-0.3,1.8-0.7
	c0.5-0.5,0.7-1.1,0.7-1.8v-1.9c0-0.2,0-0.4,0.1-0.6c0.1-0.2,0.2-0.3,0.4-0.4c2.8-2,5-4.8,6.1-8.1c1.1-3.3,1.2-6.8,0.1-10.1
	c-1-3.3-3.1-6.2-5.9-8.2C59.2,38.4,55.8,37.3,52.3,37.3L52.3,37.3z"/>
</svg>
